<?xml version="1.0" standalone="no"?><!DOCTYPE svg PUBLIC "-//W3C//DTD SVG 1.1//EN" "http://www.w3.org/Graphics/SVG/1.1/DTD/svg11.dtd"><svg t="1683809816264" class="icon" viewBox="0 0 1024 1024" version="1.1" xmlns="http://www.w3.org/2000/svg" p-id="8412" xmlns:xlink="http://www.w3.org/1999/xlink" width="32" height="32"><path d="M797.312 198.656a241.92 241.92 0 0 0-341.76 0L194.688 459.456a8.96 8.96 0 0 0-2.624 6.4 8.96 8.96 0 0 0 2.56 6.4l36.928 36.864a8.96 8.96 0 0 0 12.736 0L505.216 248.32a170.432 170.432 0 0 1 121.28-50.176c45.824 0 88.96 17.792 121.216 50.176 32.384 32.448 50.176 75.52 50.176 121.216a170.24 170.24 0 0 1-50.176 121.216l-265.984 265.92-43.136 43.072a103.36 103.36 0 0 1-176.32-72.96c0-27.648 10.752-53.504 30.208-73.024l263.936-263.808a35.264 35.264 0 0 1 24.896-10.304h0.064c9.408 0 18.112 3.712 24.704 10.304a34.88 34.88 0 0 1 0 49.6L390.4 655.04a8.96 8.96 0 0 0-2.56 6.4 8.96 8.96 0 0 0 2.56 6.4l36.928 36.928a8.96 8.96 0 0 0 12.672 0l215.616-215.616c19.84-19.904 30.784-46.272 30.784-74.432 0-28.096-11.008-54.592-30.784-74.368a105.536 105.536 0 0 0-148.992 0l-25.6 25.728-238.208 238.08A172.16 172.16 0 0 0 192 726.848a173.248 173.248 0 0 0 173.44 173.184 172.8 172.8 0 0 0 122.688-50.688l309.12-308.992a240.448 240.448 0 0 0 70.784-170.816 239.68 239.68 0 0 0-70.72-170.88z" fill="#8a8a8a" p-id="8413"></path></svg>