<?xml version="1.0" standalone="no"?><!DOCTYPE svg PUBLIC "-//W3C//DTD SVG 1.1//EN" "http://www.w3.org/Graphics/SVG/1.1/DTD/svg11.dtd"><svg t="1684307574954" class="icon" viewBox="0 0 1024 1024" version="1.1" xmlns="http://www.w3.org/2000/svg" p-id="9088" xmlns:xlink="http://www.w3.org/1999/xlink" width="32" height="32"><path d="M801.206857 213.211429c-101.888-89.234286-267.922286-89.234286-369.737143 0L149.211429 460.288A8.045714 8.045714 0 0 0 146.285714 466.358857c0 2.267429 0.950857 4.388571 2.779429 6.070857l39.936 34.962286a10.752 10.752 0 0 0 13.750857 0l282.404571-247.076571c35.108571-30.72 81.700571-47.542857 131.291429-47.542858 49.517714 0 96.182857 16.822857 131.072 47.542858 35.108571 30.72 54.345143 71.533714 54.345143 114.834285 0 43.373714-19.236571 84.114286-54.345143 114.834286l-287.744 251.904-46.665143 40.813714c-43.593143 38.180571-114.468571 38.180571-158.061714 0a91.428571 91.428571 0 0 1-32.694857-69.193143c0-26.112 11.556571-50.688 32.694857-69.12L540.525714 394.459429c7.241143-6.290286 16.749714-9.728 26.916572-9.728h0.073143c10.24 0 19.602286 3.437714 26.770285 9.728 7.241143 6.363429 11.117714 14.628571 11.117715 23.552 0 8.777143-4.022857 17.188571-11.117715 23.405714L360.96 645.632a8.045714 8.045714 0 0 0-2.852571 6.070857c0 2.194286 1.024 4.388571 2.852571 5.997714l39.936 34.962286a10.752 10.752 0 0 0 13.750857 0l233.252572-204.214857c21.504-18.870857 33.353143-43.885714 33.353142-70.509714s-11.922286-51.712-33.353142-70.509715c-44.470857-38.912-116.736-38.765714-161.206858 0l-27.721142 24.356572-257.755429 225.572571C165.741714 628.443429 146.285714 669.696 146.285714 713.654857c0 43.885714 19.602286 85.065143 54.930286 116.004572A201.874286 201.874286 0 0 0 334.043429 877.714286c47.981714 0 96.036571-16.018286 132.608-48.054857l334.555428-292.717715C850.432 493.787429 877.714286 436.224 877.714286 375.149714c0.073143-61.220571-27.136-118.710857-76.507429-161.938285z" fill-opacity=".65" p-id="9089" fill="#1296db"></path></svg>