<?xml version="1.0" standalone="no"?><!DOCTYPE svg PUBLIC "-//W3C//DTD SVG 1.1//EN" "http://www.w3.org/Graphics/SVG/1.1/DTD/svg11.dtd"><svg t="1683811421689" class="icon" viewBox="0 0 1024 1024" version="1.1" xmlns="http://www.w3.org/2000/svg" p-id="5786" xmlns:xlink="http://www.w3.org/1999/xlink" width="32" height="32"><path d="M897.2 128H578.7c-1.6-34.7-30.2-62.4-65.3-62.4s-63.8 27.7-65.3 62.4h-320c-17.5 0-31.9 14.4-31.9 31.9s14.4 31.9 31.9 31.9H192v639.8c0 70.4 57.6 128 128 128h384.1c70.4 0 128-57.6 128-128V676.2c0.1-1.2 0.2-2.4 0.2-3.6 0.1-17.8-14.4-32.1-32.1-32.1-17.8 0-32.2 14.4-32.2 32.1v159.1c0 35.2-28.8 64-64 64H320c-35.2 0-64-28.8-64-64V191.8h511.9v223.1c0 17.7 14.4 32.1 32.2 32.1s32.2-14.4 32.2-32.1c0-1.2-0.1-2.4-0.2-3.6V191.8h65.1c17.6 0 31.9-14.4 31.9-31.9S914.7 128 897.2 128z" fill="#8a8a8a" p-id="5787"></path><path d="M386.9 350.6v386.6c0 16.8 13.8 30.6 30.6 30.6s30.6-13.8 30.6-30.5V350.6c0-16.8-13.8-30.6-30.6-30.6s-30.6 13.8-30.6 30.6zM576.7 350.6v386.6c0 16.8 13.8 30.6 30.6 30.6s30.6-13.8 30.6-30.5V350.6c0-16.8-13.8-30.6-30.6-30.6s-30.6 13.8-30.6 30.6z" fill="#8a8a8a" p-id="5788"></path><path d="M768 543.7a32.2 32.1 0 1 0 64.4 0 32.2 32.1 0 1 0-64.4 0Z" fill="#8a8a8a" p-id="5789"></path></svg>