<?xml version="1.0" standalone="no"?><!DOCTYPE svg PUBLIC "-//W3C//DTD SVG 1.1//EN" "http://www.w3.org/Graphics/SVG/1.1/DTD/svg11.dtd"><svg t="1685633684753" class="icon" viewBox="0 0 1024 1024" version="1.1" xmlns="http://www.w3.org/2000/svg" p-id="34117" width="32" height="32" xmlns:xlink="http://www.w3.org/1999/xlink"><path d="M566.4 428.976a13.92 13.92 0 0 1 8.752 3.6 752.32 752.32 0 0 1 23.52 25.712c4.384 5.056 7.792 9.28 9.36 11.76a140.912 140.912 0 0 1-19.456 174.928l-156.096 156.096a140.864 140.864 0 0 1-199.216-199.2l107.296-107.312a16 16 0 0 1 22.624 0l11.328 11.312a16 16 0 0 1 0 22.624L267.2 635.792a92.864 92.864 0 0 0 131.344 131.344l156.096-156.096a92.912 92.912 0 0 0 12.848-115.296 120.832 120.832 0 0 0-7.648-9.008c-5.36-5.984-12.624-13.824-18.96-20.48-1.808-1.92-2.976-5.104-2.944-8.96 0.032-3.632 1.168-7.968 2.592-9.408l16.208-16.208c1.44-1.44 5.664-2.912 9.68-2.704z m35.456-195.712A140.864 140.864 0 0 1 801.072 432.48l-84.848 84.848-12.88 12.88-2.192 2.192a24 24 0 0 1-15.216 6.496c-3.504 0.096-6.48-1.408-11.2-4.8-3.152-2.256-6.976-6.08-11.488-11.472-3.008-4.08-3.984-8.256-2.912-12.528 1.36-5.44 2.832-7.52 4.16-8.912l1.104-1.104 7.552-7.568 93.984-93.968a92.864 92.864 0 0 0-131.344-131.344l-156.096 156.096a92.912 92.912 0 0 0-12.848 115.296c0.784 1.248 4.112 5.104 8.56 10.032 4.912 5.44 11.168 12.208 16.832 18.192 1.856 1.952 3.36 6.144 3.616 10 0.288 4.432-0.96 8.528-2.624 10.208l-13.824 13.808c-1.632 1.632-7.424 4.368-11.872 4.464-4.304 0.096-9.76-5.008-10.08-5.344-5.92-6.24-12.272-13.12-17.76-19.296-6.256-7.04-11.36-13.168-13.392-16.368a140.912 140.912 0 0 1 19.456-174.928z" fill="#1296db" p-id="34118"></path></svg>