<?xml version="1.0" standalone="no"?><!DOCTYPE svg PUBLIC "-//W3C//DTD SVG 1.1//EN" "http://www.w3.org/Graphics/SVG/1.1/DTD/svg11.dtd"><svg t="1685632843280" class="icon" viewBox="0 0 1024 1024" version="1.1" xmlns="http://www.w3.org/2000/svg" p-id="5858" width="64" height="64" xmlns:xlink="http://www.w3.org/1999/xlink"><path d="M204.416 147.754667a56.661333 56.661333 0 1 0 0 113.322666 56.661333 56.661333 0 0 0 0-113.322666zM85.333333 204.416a119.082667 119.082667 0 0 1 234.026667-31.232h588.032a31.232 31.232 0 0 1 0 62.464H319.36A119.125333 119.125333 0 0 1 85.333333 204.373333z m514.56 250.965333a56.661333 56.661333 0 1 0 0 113.28 56.661333 56.661333 0 0 0 0-113.28z m-114.944 25.429334a119.125333 119.125333 0 0 1 229.888 0h192.597334a31.232 31.232 0 0 1 0 62.421333h-192.597334a119.125333 119.125333 0 0 1-229.888 0H116.608a31.232 31.232 0 0 1 0-62.421333h368.341333z m-337.109333 338.773333a56.661333 56.661333 0 1 1 113.28 0 56.661333 56.661333 0 0 1-113.28 0z m56.661333-119.082667a119.082667 119.082667 0 1 0 114.944 150.314667h587.989334a31.232 31.232 0 0 0 0-62.464H319.445333a119.125333 119.125333 0 0 0-114.944-87.893333z" fill="#8a8a8a" fill-opacity=".65" p-id="5859"></path></svg>