<?xml version="1.0" standalone="no"?><!DOCTYPE svg PUBLIC "-//W3C//DTD SVG 1.1//EN" "http://www.w3.org/Graphics/SVG/1.1/DTD/svg11.dtd"><svg t="1687080787573" class="icon" viewBox="0 0 1024 1024" version="1.1" xmlns="http://www.w3.org/2000/svg" p-id="1485" xmlns:xlink="http://www.w3.org/1999/xlink" width="200" height="200"><path d="M461.1 887.1S210.6 784 98.3 552.5C46.6 446 46.3 303.3 147 202.1c100.6-101.1 263.8-101.2 364.4 0C612 101 775.2 101 875.8 202.1 976.5 303.3 979.1 458 924.5 552.5 789 787.1 570.3 885.1 570.3 885.1c-29.8 16.3-78.9 16.8-109.2 2z m20.1-41.4c17.3 8.5 50.7 7.9 66.8-1l3.6-1.7c2.7-1.2 8.5-4 17-8.5 14.6-7.8 31-17.3 48.8-28.6 51-32.6 102.1-73.1 149.7-121.9 45.2-46.3 85-97.7 117.8-154.5 50-86.6 36.9-216.2-41.5-294.9-82.7-83.1-216.6-83.1-299.2 0l-32.6 32.8-32.6-32.8c-82.7-83.1-216.6-83.1-299.3 0-78 78.4-89.5 195.7-40 297.8 33.6 69.1 82.8 130.8 143.9 185 43 38.2 89.2 70.4 135.4 96.7 16.2 9.2 31 16.9 44.3 23.3 7.8 3.7 13 6.1 15.5 7.1l2.4 1.2z" fill="#d81e06" p-id="1486"></path></svg>