<?xml version="1.0" standalone="no"?><!DOCTYPE svg PUBLIC "-//W3C//DTD SVG 1.1//EN" "http://www.w3.org/Graphics/SVG/1.1/DTD/svg11.dtd"><svg t="1685634113525" class="icon" viewBox="0 0 1024 1024" version="1.1" xmlns="http://www.w3.org/2000/svg" p-id="44394" xmlns:xlink="http://www.w3.org/1999/xlink" width="32" height="32"><path d="M510.807874 962.98483c-247.853807 0-448.817329-200.963522-448.817329-448.817328 0-247.926057 200.963522-448.889579 448.817329-448.889579 247.926057 0 448.889579 200.963522 448.889579 448.889579 0.036125 247.853807-200.927397 448.817329-448.889579 448.817328z m0-841.568616c-216.894659 0-392.679038 175.784379-392.679037 392.751288 0 216.894659 175.784379 392.679038 392.679037 392.679037 216.966909 0 392.751288-175.784379 392.751288-392.679037 0.036125-216.966909-175.748254-392.751288-392.751288-392.751288z m24.745643 519.983631c-6.75538 6.68313-16.003387 8.814506-24.745643 7.297255-8.633881 1.517251-17.881888-0.614125-24.637268-7.297255l-214.763282-214.835533a28.061921 28.061921 0 0 1 0-39.665279 28.061921 28.061921 0 0 1 39.665279 0l199.735271 199.807522 199.807521-199.807522a28.061921 28.061921 0 0 1 39.66528 0 28.061921 28.061921 0 0 1 0 39.665279l-214.727158 214.835533z" fill="#8a8a8a" p-id="44395"></path></svg>