<?xml version="1.0" standalone="no"?><!DOCTYPE svg PUBLIC "-//W3C//DTD SVG 1.1//EN" "http://www.w3.org/Graphics/SVG/1.1/DTD/svg11.dtd"><svg t="1686209115343" class="icon" viewBox="0 0 1024 1024" version="1.1" xmlns="http://www.w3.org/2000/svg" p-id="7661" xmlns:xlink="http://www.w3.org/1999/xlink" width="32" height="32"><path d="M512.128 960.544c-247.04 0-448-200.96-448-448s200.96-448 448-448 448 200.96 448 448S759.168 960.544 512.128 960.544zM512.128 128.544c-211.744 0-384 172.256-384 384 0 211.744 172.256 384 384 384 211.744 0 384-172.256 384-384C896.128 300.8 723.872 128.544 512.128 128.544zM575.136 768c-8.384 0-16.704-3.264-23.008-9.76-12.288-12.672-11.968-32.96 0.736-45.248 55.584-53.824 86.208-125.184 86.208-200.992 0-75.84-30.624-147.232-86.24-200.992-12.704-12.288-13.056-32.544-0.736-45.248 12.288-12.672 32.544-13.056 45.248-0.736 68.192 65.92 105.76 153.664 105.76 247.008 0 93.312-37.536 181.024-105.728 247.008C591.168 764.992 583.168 768 575.136 768zM480.288 703.296c-7.936 0-15.84-2.912-22.048-8.8-12.8-12.16-13.344-32.416-1.152-45.216 34.72-36.576 53.856-85.312 53.856-137.248 0-52.672-19.52-101.824-55.008-138.464-12.288-12.672-11.968-32.96 0.736-45.248 12.672-12.256 32.928-11.968 45.248 0.736 47.072 48.64 72.992 113.632 72.992 182.976 0 68.448-25.376 132.8-71.456 181.312C497.184 699.936 488.736 703.296 480.288 703.296zM384.96 621.088c-9.376 0-18.72-4.128-25.024-12.032-11.008-13.824-8.736-33.984 5.056-44.96 12.864-10.272 19.968-24.128 19.968-39.008 0-14.656-7.264-28.896-19.904-39.008-13.824-11.04-16.064-31.168-5.024-44.96 11.008-13.824 31.168-16.064 44.96-5.024 27.936 22.304 43.968 54.752 43.968 88.992s-16.032 66.688-44.032 88.992C399.008 618.816 391.968 621.088 384.96 621.088z" fill="#d81e06" p-id="7662"></path></svg>