<?xml version="1.0" standalone="no"?><!DOCTYPE svg PUBLIC "-//W3C//DTD SVG 1.1//EN" "http://www.w3.org/Graphics/SVG/1.1/DTD/svg11.dtd"><svg t="1683882804173" class="icon" viewBox="0 0 1024 1024" version="1.1" xmlns="http://www.w3.org/2000/svg" p-id="3195" width="32" height="32" xmlns:xlink="http://www.w3.org/1999/xlink"><path d="M692.396 722.484l-0.022-0.031c-6.111-8.751-4.467-20.737 3.789-27.501 56.615-46.385 89.907-115.976 89.907-189.68 0-74.82-34.098-145.075-92.073-191.446-8.332-6.663-10.098-18.633-4.089-27.449l0.023-0.034c6.674-9.792 20.299-11.944 29.556-4.546 67.696 54.104 107.515 136.119 107.515 223.475 0 85.958-38.791 167.117-104.769 221.236C712.979 734.098 699.248 732.297 692.396 722.484zM553.384 503.61M553.384 503.61M403.452 726.188 403.452 726.188 403.452 726.188zM808.949 893.925l-0.007-0.011c-6.68-8.668-5.374-21.088 3.02-28.11 107.68-90.082 169.039-220.953 169.039-362.068 0-141.946-61.949-273.312-170.66-363.422-8.424-6.983-9.781-19.396-3.142-28.095l0.007-0.009c7.048-9.232 20.38-10.771 29.308-3.343 53.985 44.912 98.836 101.073 130.433 163.53 36.486 72.124 54.986 149.958 54.986 231.339 0 80.978-18.325 158.464-54.466 230.307-31.279 62.18-75.704 118.188-129.198 163.096C829.373 904.605 816.036 903.124 808.949 893.925zM553.384 503.61M345.363 812.42M211.597 722.202 86.761 722.202c-44.647 0-80.841-36.194-80.841-80.841L5.92 369.183c0-44.647 36.194-80.841 80.841-80.841l128.93 0c11.304 0 10.233 9.163 10.233 20.466l10.233 0c0 11.303-9.163 20.466-20.466 20.466L86.761 329.274c-22.041 0-39.909 17.868-39.909 39.909l0 272.179c0 22.041 17.868 39.909 39.909 39.909l129.844-0.084c11.303 0 20.466 9.162 20.466 20.466l-13.194 0.084C223.877 713.04 222.901 722.202 211.597 722.202zM530.025 984.304c-20.751 0-41.259-6.915-58.062-20.284l-0.277-0.225L206.413 717.842c-8.721-7.19-9.961-20.089-2.77-28.81l0 0c7.191-8.721 20.089-9.961 28.81-2.771l265.131 245.835c15.304 12.098 35.188 14.717 53.223 6.999 17.67-7.563 29.239-23.395 30.95-42.352 0.171-1.889 0.257-3.809 0.257-5.709L582.014 117.974c0-0.624-0.009-1.246-0.026-1.866-0.578-19.778-11.798-36.533-30.015-44.82-18.73-8.521-39.346-5.86-55.144 7.118L231.498 324.658c-8.734 7.175-21.631 5.91-28.805-2.823l12.486-9.959c-7.174-8.733-17.958-11.501-9.224-18.676L470.847 46.778c27.721-22.773 65.303-27.657 98.074-12.748 32.268 14.678 52.951 45.67 53.979 80.881 0.03 1.017 0.046 2.039 0.046 3.063l0 773.061c0 3.127-0.143 6.287-0.423 9.391-3.086 34.193-23.875 62.718-55.612 76.301C555.029 981.812 542.483 984.304 530.025 984.304z" fill="#8a8a8a" p-id="3196"></path></svg>