<?xml version="1.0" standalone="no"?><!DOCTYPE svg PUBLIC "-//W3C//DTD SVG 1.1//EN" "http://www.w3.org/Graphics/SVG/1.1/DTD/svg11.dtd"><svg t="1685372140799" class="icon" viewBox="0 0 1024 1024" version="1.1" xmlns="http://www.w3.org/2000/svg" p-id="3198" width="32" height="32" xmlns:xlink="http://www.w3.org/1999/xlink"><path d="M493.81 153.86c36.86-33.93 88.66-59.1 158.67-59.42 72.5-0.33 119.33 35.24 146.73 70.14 13.42 17.09 22.26 34.01 27.78 46.62 2.78 6.36 4.78 11.76 6.12 15.73 0.67 1.99 1.19 3.64 1.56 4.88l0.45 1.56 0.15 0.54 0.06 0.21 0.03 0.09c0 0.02 0.02 0.08-38.8 10.33l38.82-10.25c5.66 21.44-7.13 43.41-28.57 49.07-21.35 5.64-43.23-7.02-49.01-28.3l-0.08-0.27c-0.11-0.38-0.34-1.1-0.68-2.13-0.7-2.06-1.88-5.29-3.63-9.29-3.54-8.09-9.15-18.75-17.37-29.22-15.87-20.21-41-39.62-83.21-39.43-49.09 0.23-81.85 17.22-104.65 38.2-4.46 4.11-9.06 8.38-13.76 12.75-26.58 24.71-56.88 52.88-89.31 75.49-38.7 26.98-84.78 49.31-138.32 49.56l-54.66 0.28c-57.02 0.26-103.03 46.7-102.77 103.72l0.65 141.06c0.26 57.02 46.7 103.03 103.72 102.77l117.36-0.54c22.17-0.1 40.23 17.79 40.34 39.97 0.1 22.18-17.79 40.24-39.97 40.34l-117.36 0.54c-101.37 0.46-183.92-81.33-184.39-182.7l-0.65-141.06c-0.46-101.37 81.34-183.92 182.71-184.39l54.66-0.25c30.72-0.14 60.84-12.88 92.76-35.13 27.39-19.1 52.93-42.8 79.67-67.62 4.94-4.59 9.91-9.21 14.95-13.85z" p-id="3199" fill="#8a8a8a"></path><path d="M940.98 73.36c16.9 14.35 18.97 39.69 4.61 56.59L312.96 874.92c-14.35 16.9-39.69 18.97-56.59 4.61-16.9-14.35-18.97-39.69-4.61-56.59L884.39 77.98c14.35-16.91 39.69-18.97 56.59-4.62zM797.58 466.62c22.18-0.1 40.23 17.79 40.33 39.97l1.08 235.04c0.94 205.85-258.66 296.97-386.58 135.69-13.78-17.37-10.87-42.63 6.51-56.41s42.63-10.87 56.41 6.51c80.53 101.53 243.96 44.17 243.36-85.42l-1.08-235.04c-0.1-22.18 17.79-40.24 39.97-40.34z" p-id="3200" fill="#8a8a8a"></path></svg>