<?xml version="1.0" standalone="no"?><!DOCTYPE svg PUBLIC "-//W3C//DTD SVG 1.1//EN" "http://www.w3.org/Graphics/SVG/1.1/DTD/svg11.dtd"><svg t="1685633941538" class="icon" viewBox="0 0 1024 1024" version="1.1" xmlns="http://www.w3.org/2000/svg" p-id="42256" xmlns:xlink="http://www.w3.org/1999/xlink" width="32" height="32"><path d="M512 550.4c-19.2 0-38.4-19.2-38.4-38.4V44.8c0-19.2 19.2-38.4 38.4-38.4 281.6 0 505.6 224 505.6 505.6 0 19.2-19.2 38.4-38.4 38.4H512z m38.4-76.8h384v-6.4c-12.8-96-57.6-185.6-121.6-256-70.4-70.4-160-108.8-256-121.6h-6.4v384z" p-id="42257" fill="#8a8a8a"></path><path d="M512 1017.6c-70.4 0-134.4-12.8-198.4-38.4C57.6 870.4-64 569.6 44.8 313.6 96 192 192 102.4 307.2 51.2c6.4 0 12.8-6.4 19.2-6.4 19.2 0 32 6.4 38.4 25.6 6.4 19.2 0 44.8-19.2 51.2C128 217.6 25.6 467.2 121.6 684.8c70.4 153.6 217.6 256 390.4 256 57.6 0 115.2-12.8 172.8-38.4 102.4-44.8 179.2-121.6 224-224 6.4-12.8 19.2-25.6 38.4-25.6h12.8c12.8 6.4 19.2 12.8 19.2 19.2 6.4 12.8 6.4 19.2 0 32-83.2 192-262.4 313.6-467.2 313.6z" p-id="42258" fill="#8a8a8a"></path></svg>