<?xml version="1.0" standalone="no"?><!DOCTYPE svg PUBLIC "-//W3C//DTD SVG 1.1//EN" "http://www.w3.org/Graphics/SVG/1.1/DTD/svg11.dtd"><svg t="1686208867294" class="icon" viewBox="0 0 1024 1024" version="1.1" xmlns="http://www.w3.org/2000/svg" p-id="3790" xmlns:xlink="http://www.w3.org/1999/xlink" width="32" height="32"><path d="M512 64C264.64 64 64 264.576 64 512c0 247.36 200.64 448 448 448 247.424 0 448-200.64 448-448C960 264.576 759.424 64 512 64zM511.936 896.768C299.52 896.768 127.232 724.48 127.232 512S299.52 127.232 511.936 127.232c212.48 0 384.704 172.224 384.704 384.768S724.416 896.768 511.936 896.768zM640 640 384 640 384 384l256 0L640 640z" fill="#d81e06" p-id="3791"></path></svg>