<?xml version="1.0" standalone="no"?><!DOCTYPE svg PUBLIC "-//W3C//DTD SVG 1.1//EN" "http://www.w3.org/Graphics/SVG/1.1/DTD/svg11.dtd"><svg t="1686128704504" class="icon" viewBox="0 0 1024 1024" version="1.1" xmlns="http://www.w3.org/2000/svg" p-id="3527" xmlns:xlink="http://www.w3.org/1999/xlink" width="32" height="32"><path d="M812.8 161.063H211.2c-27.689 0-50.136 22.434-50.136 50.129v601.616c0 27.689 22.448 50.128 50.136 50.128H812.8c27.689 0 50.136-22.44 50.136-50.128V211.192c0-27.695-22.447-50.129-50.136-50.129z m0 626.67c0 13.858-11.209 25.075-25.06 25.075H236.26c-13.852 0-25.061-11.217-25.061-25.075V236.26c0-13.852 11.209-25.068 25.06-25.068h551.48c13.852 0 25.061 11.216 25.061 25.068v551.473z" fill="#8a8a8a" p-id="3528"></path></svg>